<?xml version="1.0" encoding="UTF-8"?>
<svg id="Layer_2" data-name="Layer 2" xmlns="http://www.w3.org/2000/svg" viewBox="0 0 890.56 144.26">
  <defs>
    <style>
      .cls-1 {
        fill: #2563eb;
      }

      .cls-1, .cls-2 {
        stroke-width: 0px;
      }

      .cls-2 {
        fill: #000;
      }
    </style>
  </defs>
  <g id="taskboard">
    <g>
      <g>
        <path class="cls-2" d="M63.38,52.03h-30.14v71.76c0,2.63.38,4.23,1.13,4.79.75.56,2.63.84,5.64.84h9.02v13.34c-6.01,1-10.58,1.5-13.71,1.5-6.01,0-10.46-1.47-13.34-4.41-2.88-2.94-4.32-7.61-4.32-13.99V52.03H0v-13.53h17.66V0h15.59v38.51h30.14v13.53Z"/>
        <path class="cls-2" d="M172.06,140.88h-15.22v-15.03c-11.15,12.27-23.98,18.41-38.51,18.41s-26.96-5.35-37.29-16.06c-10.33-10.71-15.5-23.48-15.5-38.32s5.2-27.55,15.59-38.13c10.39-10.58,23.07-15.87,38.04-15.87s27.52,6.08,37.66,18.22v-15.59h15.22v102.38ZM119.47,129.8c10.39,0,19.35-3.76,26.86-11.27,7.51-7.51,11.27-16.87,11.27-28.08s-3.7-20.6-11.08-28.18c-7.39-7.58-16.44-11.36-27.14-11.36s-19.76,3.92-27.14,11.74c-7.39,7.83-11.08,17.06-11.08,27.71s3.76,19.88,11.27,27.71c7.51,7.83,16.53,11.74,27.05,11.74Z"/>
        <path class="cls-2" d="M251.71,50.53l-9.96,10.33c-7.39-6.89-14.15-10.33-20.29-10.33-3.88,0-7.14,1.22-9.77,3.66-2.63,2.44-3.94,5.45-3.94,9.02s1.47,6.7,4.41,9.39c2.94,2.69,8.17,6.01,15.69,9.96,7.51,3.94,13.3,8.3,17.38,13.05,4.07,4.76,6.1,10.58,6.1,17.47,0,8.77-3.04,16.15-9.11,22.17-6.08,6.01-13.56,9.02-22.45,9.02-12.4,0-22.73-5.26-30.99-15.78l9.77-10.89c6.76,7.89,13.65,11.83,20.66,11.83,4.76,0,8.83-1.56,12.21-4.7,3.38-3.13,5.07-6.79,5.07-10.99s-1.54-7.7-4.6-10.52c-3.07-2.82-8.33-6.1-15.78-9.86-7.45-3.76-13.09-7.92-16.91-12.49-3.82-4.57-5.73-10.58-5.73-18.03s2.72-13.81,8.17-19.07c5.45-5.26,12.65-7.89,21.6-7.89s18.44,4.88,28.46,14.65Z"/>
        <path class="cls-2" d="M351.64,140.88h-22.35l-48.09-43.2v43.2h-15.59V0h15.59v77.2l44.14-38.51,23.1-.19-56.35,48.84,59.55,53.54Z"/>
        <g>
          <path class="cls-1" d="M37.55,56.81h13.52c3.73,0,6.76,3.03,6.76,6.76h0c0,3.73-3.03,6.76-6.76,6.76h-13.52v-13.52h0Z"/>
          <path class="cls-1" d="M37.55,76.55h6.76c3.73,0,6.76,3.03,6.76,6.76h0c0,3.73-3.03,6.76-6.76,6.76h-6.76v-13.52h0Z"/>
        </g>
      </g>
      <g>
        <path class="cls-1" d="M383.57,53.54c10.64-11.77,23.42-17.66,38.32-17.66s27.45,5.29,37.66,15.87c10.2,10.58,15.31,23.33,15.31,38.23s-5.2,27.68-15.59,38.32c-10.4,10.65-22.95,15.97-37.66,15.97s-27.4-6.39-38.04-19.16v8.17c0,4.2-3.41,7.61-7.61,7.61h0c-4.2,0-7.61-3.41-7.61-7.61V7.61C368.36,3.41,371.76,0,375.96,0h0c4.2,0,7.61,3.41,7.61,7.61v45.93ZM420.95,129.24c10.64,0,19.69-3.94,27.14-11.83,7.45-7.89,11.18-17.12,11.18-27.71s-3.63-19.82-10.89-27.71c-7.26-7.89-16.34-11.83-27.24-11.83s-20.01,3.69-27.33,11.08c-7.33,7.39-10.99,16.69-10.99,27.9s3.69,20.69,11.08,28.46c7.39,7.77,16.4,11.65,27.05,11.65Z"/>
        <path class="cls-1" d="M540.42,35.88c14.78,0,27.33,5.32,37.66,15.97,10.33,10.65,15.5,23.42,15.5,38.32s-5.1,27.65-15.31,38.23c-10.21,10.58-22.82,15.87-37.85,15.87s-27.68-5.29-37.94-15.87c-10.27-10.58-15.4-23.32-15.4-38.23s5.17-27.67,15.5-38.32c10.33-10.64,22.95-15.97,37.85-15.97ZM540.42,129.42c10.39,0,19.25-3.79,26.58-11.36,7.33-7.58,10.99-16.72,10.99-27.43s-3.73-19.97-11.18-27.8c-7.45-7.83-16.28-11.74-26.49-11.74-11.11,0-20.54,4.64-28.31,13.9-5.43,6.48-8.64,14.6-9.09,23.04-.64,11.95,2.91,21.99,10.63,30.12,7.14,7.51,16.09,11.27,26.86,11.27Z"/>
        <path class="cls-1" d="M703.56,140.88h0c-4.2,0-7.61-3.41-7.61-7.61v-7.42c-11.15,12.27-23.98,18.41-38.51,18.41s-26.96-5.35-37.29-16.06c-10.72-11.11-15.88-24.44-15.48-40,.34-12.96,5.38-25.43,14.16-34.97,10.65-11.57,23.8-17.36,39.45-17.36s27.52,6.08,37.66,18.22v-7.98c0-4.2,3.41-7.61,7.61-7.61h0c4.2,0,7.61,3.41,7.61,7.61v87.16c0,4.2-3.41,7.61-7.61,7.61ZM658.58,129.8c10.39,0,19.35-3.76,26.86-11.27,7.51-7.51,11.27-16.87,11.27-28.08s-3.69-20.6-11.08-28.18c-7.39-7.58-16.44-11.36-27.14-11.36s-19.76,3.92-27.14,11.74c-7.39,7.83-11.08,17.06-11.08,27.71s3.76,19.88,11.27,27.71c7.51,7.83,16.53,11.74,27.05,11.74Z"/>
        <path class="cls-1" d="M775.78,47.98l-.24.38c-1.55,2.53-4.49,3.71-7.42,3.25-.58-.09-1.16-.14-1.73-.14-3.88,0-7.39,1.91-10.52,5.73-3.13,3.82-5.48,8.83-7.04,15.03-1.57,6.2-2.35,17.38-2.35,33.53v27.52c0,4.2-3.41,7.61-7.61,7.61h-.57c-4.2,0-7.61-3.41-7.61-7.61V46.12c0-4.2,3.41-7.61,7.61-7.61h.57c4.2,0,7.61,3.41,7.61,7.61v3.48c3.13-4.63,6.29-8.08,9.49-10.33,3.19-2.25,6.82-3.38,10.89-3.38,1.18,0,2.41.12,3.68.35,5.39.98,8.1,7.08,5.23,11.75Z"/>
        <path class="cls-1" d="M882.95,140.88h0c-4.2,0-7.61-3.41-7.61-7.61v-7.42c-11.15,12.27-24.01,18.41-38.6,18.41s-27.02-5.32-37.29-15.97c-10.27-10.64-15.4-23.42-15.4-38.32s5.2-27.64,15.59-38.23c10.39-10.58,23.07-15.87,38.04-15.87s27.52,6.08,37.66,18.22V7.61C875.35,3.41,878.75,0,882.95,0h0c4.2,0,7.61,3.41,7.61,7.61v125.67c0,4.2-3.41,7.61-7.61,7.61ZM837.96,129.8c9.89,0,18.72-3.69,26.49-11.08,7.76-7.39,11.64-16.75,11.64-28.08s-3.6-20.79-10.8-28.36c-7.2-7.58-16.28-11.36-27.24-11.36s-20.1,3.92-27.42,11.74c-7.33,7.83-10.99,17.03-10.99,27.61s3.76,19.82,11.27,27.71c7.51,7.89,16.53,11.83,27.05,11.83Z"/>
      </g>
    </g>
  </g>
</svg>